<svg width="80" height="80" viewBox="0 0 80 80" fill="none" xmlns="http://www.w3.org/2000/svg">
<path d="M38.4531 15.3656V19.6875C38.4531 19.7704 38.4202 19.8499 38.3616 19.9085C38.303 19.9671 38.2235 20 38.1406 20H26.0719C24.4615 20 22.9171 20.6397 21.7784 21.7784C20.6397 22.9171 20 24.4615 20 26.0719V38.1406C20 38.2235 19.9671 38.303 19.9085 38.3616C19.8499 38.4202 19.7704 38.4531 19.6875 38.4531H15.3656C11.125 38.4531 7.575 41.8125 7.50156 46.0531C7.48351 47.0806 7.67025 48.1013 8.05089 49.0558C8.43153 50.0103 8.99845 50.8794 9.71856 51.6124C10.4387 52.3455 11.2976 52.9278 12.2451 53.3254C13.1927 53.723 14.2099 53.9279 15.2375 53.9281H19.6875C19.7704 53.9281 19.8499 53.961 19.9085 54.0197C19.9671 54.0783 20 54.1577 20 54.2406V66.3094C20.0049 67.9497 20.6588 69.5214 21.8187 70.6813C22.9785 71.8412 24.5503 72.4951 26.1906 72.5H37.1875C37.2704 72.5 37.3499 72.4671 37.4085 72.4085C37.4671 72.3499 37.5 72.2704 37.5 72.1875V67.9828C37.5 63.3937 41.4813 59.5953 46.0703 59.5312C50.7375 59.4656 55 63.2047 55 67.8578V72.1875C55 72.2704 55.0329 72.3499 55.0915 72.4085C55.1501 72.4671 55.2296 72.5 55.3125 72.5H66.3094C67.9497 72.4951 69.5214 71.8412 70.6813 70.6813C71.8412 69.5214 72.4951 67.9497 72.5 66.3094V55.3125C72.5 55.2296 72.4671 55.1501 72.4085 55.0915C72.3499 55.0329 72.2704 55 72.1875 55H68.9172C64.1859 55 60.1125 51.1328 60.0016 46.4062C59.8922 41.7031 63.175 37.5 67.8578 37.5H72.1875C72.2704 37.5 72.3499 37.4671 72.4085 37.4085C72.4671 37.3499 72.5 37.2704 72.5 37.1875V26.0719C72.5 24.4615 71.8603 22.9171 70.7216 21.7784C69.5829 20.6397 68.0385 20 66.4281 20H54.2406C54.1577 20 54.0783 19.9671 54.0197 19.9085C53.9611 19.8499 53.9281 19.7704 53.9281 19.6875V15.2375C53.9281 10.9203 50.3859 7.5 46.0531 7.5C41.7203 7.5 38.4531 11.125 38.4531 15.3656Z" fill="#CDBFE0" stroke="white" stroke-linecap="round" stroke-linejoin="round"/>
<path d="M52.5 32.5C52.5 31.125 51.375 30 50 30H30C28.625 30 27.5 31.125 27.5 32.5V47.5C27.5 48.875 28.625 50 30 50H50C51.375 50 52.5 48.875 52.5 47.5V32.5ZM50 32.5L40 38.75L30 32.5H50ZM50 47.5H30V35L40 41.25L50 35V47.5Z" fill="white"/>
</svg>
