<?xml version="1.0" encoding="UTF-8"?>
<svg version="1.1" xmlns="http://www.w3.org/2000/svg" width="40" height="40">
<path d="M0 0 C0 11.22 0 22.44 0 34 C-5.62686567 32.87462687 -5.62686567 32.87462687 -8.8125 30.63671875 C-9.49570312 30.16169922 -10.17890625 29.68667969 -10.8828125 29.19726562 C-11.58148438 28.69904297 -12.28015625 28.20082031 -13 27.6875 C-13.69867188 27.20087891 -14.39734375 26.71425781 -15.1171875 26.21289062 C-18.8502233 23.59624383 -22.47682401 20.8969865 -26 18 C-24.64291483 14.8040772 -23.32916696 13.2215188 -20.4453125 11.30859375 C-19.39923828 10.60379883 -19.39923828 10.60379883 -18.33203125 9.88476562 C-17.60371094 9.40716797 -16.87539063 8.92957031 -16.125 8.4375 C-14.6896887 7.4784861 -13.2547806 6.51886843 -11.8203125 5.55859375 C-11.14774414 5.11499512 -10.47517578 4.67139648 -9.78222656 4.21435547 C-7.87748832 2.953725 -7.87748832 2.953725 -5.7421875 1.16015625 C-4 0 -4 0 0 0 Z " fill="#92D047" transform="translate(32,3)"/>
</svg>
