<svg width="80" height="80" viewBox="0 0 80 80" fill="none" xmlns="http://www.w3.org/2000/svg">
<path d="M64.6344 38.4531H60.3125C60.2296 38.4531 60.1501 38.4202 60.0915 38.3616C60.0329 38.303 60 38.2235 60 38.1406V26.0719C60 24.4615 59.3603 22.9171 58.2216 21.7784C57.0829 20.6397 55.5385 20 53.9281 20H41.8594C41.7765 20 41.697 19.9671 41.6384 19.9085C41.5798 19.8499 41.5469 19.7704 41.5469 19.6875V15.3656C41.5469 11.125 38.1875 7.575 33.9469 7.50156C32.9194 7.48351 31.8987 7.67025 30.9442 8.05089C29.9897 8.43153 29.1206 8.99845 28.3876 9.71856C27.6545 10.4387 27.0722 11.2976 26.6746 12.2451C26.277 13.1927 26.0721 14.2099 26.0719 15.2375V19.6875C26.0719 19.7704 26.039 19.8499 25.9803 19.9085C25.9217 19.9671 25.8423 20 25.7594 20H13.6906C12.0503 20.0049 10.4786 20.6588 9.31866 21.8187C8.15876 22.9785 7.50495 24.5503 7.5 26.1906V37.1875C7.5 37.2704 7.53292 37.3499 7.59153 37.4085C7.65013 37.4671 7.72962 37.5 7.8125 37.5H12.0172C16.6063 37.5 20.4047 41.4813 20.4688 46.0703C20.5344 50.7375 16.7953 55 12.1422 55H7.8125C7.72962 55 7.65013 55.0329 7.59153 55.0915C7.53292 55.1501 7.5 55.2296 7.5 55.3125V66.3094C7.50495 67.9497 8.15876 69.5214 9.31866 70.6813C10.4786 71.8412 12.0503 72.4951 13.6906 72.5H24.6875C24.7704 72.5 24.8499 72.4671 24.9085 72.4085C24.9671 72.3499 25 72.2704 25 72.1875V68.9172C25 64.1859 28.8672 60.1125 33.5938 60.0016C38.2969 59.8922 42.5 63.175 42.5 67.8578V72.1875C42.5 72.2704 42.5329 72.3499 42.5915 72.4085C42.6501 72.4671 42.7296 72.5 42.8125 72.5H53.9281C55.5385 72.5 57.0829 71.8603 58.2216 70.7216C59.3603 69.5829 60 68.0385 60 66.4281V54.2406C60 54.1577 60.0329 54.0783 60.0915 54.0197C60.1501 53.9611 60.2296 53.9281 60.3125 53.9281H64.7625C69.0797 53.9281 72.5 50.3859 72.5 46.0531C72.5 41.7203 68.875 38.4531 64.6344 38.4531Z" fill="#F4C356" stroke="white" stroke-linecap="round" stroke-linejoin="round"/>
<path d="M52.6316 55C53.2597 55 53.8621 54.7505 54.3063 54.3063C54.7505 53.8621 55 53.2597 55 52.6316V47.1053C55 46.4771 54.7505 45.8747 54.3063 45.4305C53.8621 44.9864 53.2597 44.7368 52.6316 44.7368C50.7842 44.7368 48.9684 44.4526 47.2316 43.8684C46.8163 43.7374 46.3731 43.7225 45.95 43.8255C45.5269 43.9285 45.1401 44.1454 44.8316 44.4526L42.5579 46.7263C38.6299 44.5828 35.4014 41.3544 33.2579 37.4263L35.5158 35.1684C36.1632 34.5526 36.4 33.6368 36.1158 32.7526C35.5474 31.0316 35.2632 29.2158 35.2632 27.3684C35.2632 26.7403 35.0136 26.1379 34.5695 25.6937C34.1253 25.2495 33.5229 25 32.8947 25H27.3684C26.7403 25 26.1379 25.2495 25.6937 25.6937C25.2495 26.1379 25 26.7403 25 27.3684C25 42.6053 37.3947 55 52.6316 55ZM27.3684 26.5789H32.8947C33.1041 26.5789 33.3049 26.6621 33.453 26.8102C33.601 26.9582 33.6842 27.159 33.6842 27.3684C33.6842 29.3895 34 31.3632 34.6158 33.2421C34.6947 33.4632 34.6789 33.7789 34.4263 34.0316L31.3158 37.1263C33.9211 42.2263 37.7421 46.0474 42.8579 48.6842L45.9368 45.5737C46.1579 45.3526 46.4579 45.2895 46.7421 45.3684C48.6368 46 50.6105 46.3158 52.6316 46.3158C52.841 46.3158 53.0418 46.399 53.1898 46.547C53.3379 46.6951 53.4211 46.8959 53.4211 47.1053V52.6316C53.4211 52.841 53.3379 53.0418 53.1898 53.1898C53.0418 53.3379 52.841 53.4211 52.6316 53.4211C38.2632 53.4211 26.5789 41.7368 26.5789 27.3684C26.5789 27.159 26.6621 26.9582 26.8102 26.8102C26.9582 26.6621 27.159 26.5789 27.3684 26.5789Z" fill="white"/>
</svg>
