<?xml version="1.0" encoding="UTF-8"?>
<svg version="1.1" xmlns="http://www.w3.org/2000/svg" width="40" height="40">
<path d="M0 0 C5.62686567 1.12537313 5.62686567 1.12537313 8.8125 3.36328125 C9.49570312 3.83830078 10.17890625 4.31332031 10.8828125 4.80273438 C11.93082031 5.55006836 11.93082031 5.55006836 13 6.3125 C13.69867188 6.79912109 14.39734375 7.28574219 15.1171875 7.78710938 C18.8502233 10.40375617 22.47682401 13.1030135 26 16 C24.64291483 19.1959228 23.32916696 20.7784812 20.4453125 22.69140625 C19.74792969 23.16126953 19.05054687 23.63113281 18.33203125 24.11523438 C17.60371094 24.59283203 16.87539063 25.07042969 16.125 25.5625 C14.6896887 26.5215139 13.2547806 27.48113157 11.8203125 28.44140625 C11.14774414 28.88500488 10.47517578 29.32860352 9.78222656 29.78564453 C7.87748832 31.046275 7.87748832 31.046275 5.7421875 32.83984375 C4 34 4 34 0 34 C0 22.78 0 11.56 0 0 Z " fill="#92D047" transform="translate(8,3)"/>
</svg>
