<svg width="24" height="24" viewBox="0 0 24 24" fill="none" xmlns="http://www.w3.org/2000/svg">
<path d="M11.474 17.306C14.487 14.082 17.396 11.895 21.05 8.79804C22.144 7.87104 22.313 6.24604 21.455 5.09504C20.543 3.87104 18.81 3.62604 17.638 4.59904C14.291 7.37504 11.687 10.049 9.21701 12.905C9.08701 13.055 9.02201 13.13 8.95501 13.172C8.87222 13.2249 8.77616 13.2532 8.67794 13.2538C8.57972 13.2543 8.48336 13.227 8.40001 13.175C8.33201 13.134 8.26701 13.06 8.13701 12.913L6.82101 11.423C6.54178 11.1057 6.19313 10.8571 5.80216 10.6965C5.4112 10.5359 4.98845 10.4677 4.56681 10.4971C4.14517 10.5265 3.736 10.6528 3.37111 10.8661C3.00623 11.0794 2.69547 11.374 2.46301 11.727C2.12189 12.2426 1.96165 12.8568 2.00744 13.4733C2.05323 14.0898 2.30246 14.6736 2.71601 15.133L4.78001 17.423C6.32301 19.135 7.09501 19.992 8.02201 20C8.94801 20.008 9.79001 19.108 11.474 17.306Z" fill="#C0E4DC" stroke="black" stroke-width="1.5" stroke-linecap="round" stroke-linejoin="round"/>
</svg>
