<svg width="80" height="80" viewBox="0 0 80 80" fill="none" xmlns="http://www.w3.org/2000/svg">
<path d="M64.6344 38.4531H60.3125C60.2296 38.4531 60.1501 38.4202 60.0915 38.3616C60.0329 38.303 60 38.2235 60 38.1406V26.0719C60 24.4615 59.3603 22.9171 58.2216 21.7784C57.0829 20.6397 55.5385 20 53.9281 20H41.8594C41.7765 20 41.697 19.9671 41.6384 19.9085C41.5798 19.8499 41.5469 19.7704 41.5469 19.6875V15.3656C41.5469 11.125 38.1875 7.575 33.9469 7.50156C32.9194 7.48351 31.8987 7.67025 30.9442 8.05089C29.9897 8.43153 29.1206 8.99845 28.3876 9.71856C27.6545 10.4387 27.0722 11.2976 26.6746 12.2451C26.277 13.1927 26.0721 14.2099 26.0719 15.2375V19.6875C26.0719 19.7704 26.039 19.8499 25.9803 19.9085C25.9217 19.9671 25.8423 20 25.7594 20H13.6906C12.0503 20.0049 10.4786 20.6588 9.31866 21.8187C8.15876 22.9785 7.50495 24.5503 7.5 26.1906V37.1875C7.5 37.2704 7.53292 37.3499 7.59153 37.4085C7.65013 37.4671 7.72962 37.5 7.8125 37.5H12.0172C16.6063 37.5 20.4047 41.4813 20.4688 46.0703C20.5344 50.7375 16.7953 55 12.1422 55H7.8125C7.72962 55 7.65013 55.0329 7.59153 55.0915C7.53292 55.1501 7.5 55.2296 7.5 55.3125V66.3094C7.50495 67.9497 8.15876 69.5214 9.31866 70.6813C10.4786 71.8412 12.0503 72.4951 13.6906 72.5H24.6875C24.7704 72.5 24.8499 72.4671 24.9085 72.4085C24.9671 72.3499 25 72.2704 25 72.1875V68.9172C25 64.1859 28.8672 60.1125 33.5938 60.0016C38.2969 59.8922 42.5 63.175 42.5 67.8578V72.1875C42.5 72.2704 42.5329 72.3499 42.5915 72.4085C42.6501 72.4671 42.7296 72.5 42.8125 72.5H53.9281C55.5385 72.5 57.0829 71.8603 58.2216 70.7216C59.3603 69.5829 60 68.0385 60 66.4281V54.2406C60 54.1577 60.0329 54.0783 60.0915 54.0197C60.1501 53.9611 60.2296 53.9281 60.3125 53.9281H64.7625C69.0797 53.9281 72.5 50.3859 72.5 46.0531C72.5 41.7203 68.875 38.4531 64.6344 38.4531Z" fill="#C0E4DC" stroke="white" stroke-linecap="round" stroke-linejoin="round"/>
<path d="M49.25 30.6376C48.1038 29.4802 46.7388 28.5625 45.2344 27.938C43.73 27.3135 42.1164 26.9947 40.4875 27.0001C33.6625 27.0001 28.1 32.5626 28.1 39.3876C28.1 41.5751 28.675 43.7001 29.75 45.5751L28 52.0001L34.5625 50.2751C36.375 51.2626 38.4125 51.7876 40.4875 51.7876C47.3125 51.7876 52.875 46.2251 52.875 39.4001C52.875 36.0876 51.5875 32.9751 49.25 30.6376ZM40.4875 49.6876C38.6375 49.6876 36.825 49.1876 35.2375 48.2501L34.8625 48.0251L30.9625 49.0501L32 45.2501L31.75 44.8626C30.7219 43.2214 30.1762 41.3242 30.175 39.3876C30.175 33.7126 34.8 29.0876 40.475 29.0876C43.225 29.0876 45.8125 30.1626 47.75 32.1126C48.7095 33.0674 49.4699 34.2032 49.987 35.4542C50.5042 36.7052 50.7677 38.0464 50.7625 39.4001C50.7875 45.0751 46.1625 49.6876 40.4875 49.6876ZM46.1375 41.9876C45.825 41.8376 44.3 41.0876 44.025 40.9751C43.7375 40.8751 43.5375 40.8251 43.325 41.1251C43.1125 41.4376 42.525 42.1376 42.35 42.3376C42.175 42.5501 41.9875 42.5751 41.675 42.4126C41.3625 42.2626 40.3625 41.9251 39.1875 40.8751C38.2625 40.0501 37.65 39.0376 37.4625 38.7251C37.2875 38.4126 37.4375 38.2501 37.6 38.0876C37.7375 37.9501 37.9125 37.7251 38.0625 37.5501C38.2125 37.3751 38.275 37.2376 38.375 37.0376C38.475 36.8251 38.425 36.6501 38.35 36.5001C38.275 36.3501 37.65 34.8251 37.4 34.2001C37.15 33.6001 36.8875 33.6751 36.7 33.6626H36.1C35.8875 33.6626 35.5625 33.7376 35.275 34.0501C35 34.3626 34.2 35.1126 34.2 36.6376C34.2 38.1626 35.3125 39.6376 35.4625 39.8376C35.6125 40.0501 37.65 43.1751 40.75 44.5126C41.4875 44.8376 42.0625 45.0251 42.5125 45.1626C43.25 45.4001 43.925 45.3626 44.4625 45.2876C45.0625 45.2001 46.3 44.5376 46.55 43.8126C46.8125 43.0876 46.8125 42.4751 46.725 42.3376C46.6375 42.2001 46.45 42.1376 46.1375 41.9876Z" fill="#F5F5F5"/>
</svg>
